<svg fill="none" height="240" viewBox="0 0 126 240" width="126" xmlns="http://www.w3.org/2000/svg"><path clip-rule="evenodd" d="m38.5206 0h56.7825c-36.0815 35.9606-16.5359 68.6118 2.899 101.078 11.4379 19.107 22.8369 38.15 22.8369 57.766 0 29.02-7.883 47.779-21.2887 59.89h4.4127c12.013 0 21.837 9.295 21.837 21.266h-126v-201.6127c0-21.1119 17.3322-38.3873 38.5206-38.3873zm-4.2923 136.612v-37.9165c0-13.926-20.8346-13.9094-20.8346.0166v58.9739c11.623 0 20.8346-9.489 20.8346-21.074zm75.4017 21.074c0 46.751-20.3917 60.929-54.567 69.917v-138.8427h24.3071c3.0387 5.4873 6.1438 10.756 9.1517 15.8597 11.2319 19.058 21.1082 35.816 21.1082 53.066zm-75.8979-134.3406c5.7437-5.7632 15.0864-5.7753 20.8347-.0166 0-13.92603-20.8347-13.9094-20.8347.0166z" fill="#000" fill-rule="evenodd"/></svg>